<svg width="40" height="40" viewBox="0 0 40 40" fill="none" xmlns="http://www.w3.org/2000/svg">
<path d="M5 18.3333C5 12.0479 5 8.90524 6.95262 6.95262C8.90524 5 12.0479 5 18.3333 5H21.6667C27.9521 5 31.0948 5 33.0474 6.95262C35 8.90524 35 12.0479 35 18.3333V21.6667C35 27.9521 35 31.0948 33.0474 33.0474C31.0948 35 27.9521 35 21.6667 35H18.3333C12.0479 35 8.90524 35 6.95262 33.0474C5 31.0948 5 27.9521 5 21.6667V18.3333Z" fill="#AAB3BC"/>
<circle cx="20.0007" cy="16.6667" r="6.66667" fill="#222222"/>
<path fill-rule="evenodd" clip-rule="evenodd" d="M31.5784 33.7553C31.6038 33.9311 31.5091 34.1022 31.345 34.1702C29.3424 35 26.3933 35 21.6679 35H18.3345C13.6091 35 10.66 35 8.65742 34.1702C8.49331 34.1022 8.39856 33.9311 8.42403 33.7553C9.13892 28.8199 14.0496 25 20.0012 25C25.9528 25 30.8635 28.8199 31.5784 33.7553Z" fill="#222222"/>
</svg>
