<svg width="24" height="24" viewBox="0 0 24 24" fill="none" xmlns="http://www.w3.org/2000/svg">
<path d="M2 3.66667C2 3.22464 2.19754 2.80072 2.54916 2.48816C2.90078 2.17559 3.37768 2 3.87494 2H20.1251C20.6223 2 21.0992 2.17559 21.4508 2.48816C21.8025 2.80072 22 3.22464 22 3.66667V6.0475C22 6.48953 21.8025 6.91345 21.4508 7.22601C21.0992 7.53857 20.6223 7.71417 20.1251 7.71417H3.87494C3.37768 7.71417 2.90078 7.53857 2.54916 7.22601C2.19754 6.91345 2 6.48953 2 6.0475V3.66667ZM2 10.8092C2 10.3671 2.19754 9.94322 2.54916 9.63065C2.90078 9.31809 3.37768 9.1425 3.87494 9.1425H20.1251C20.6223 9.1425 21.0992 9.31809 21.4508 9.63065C21.8025 9.94322 22 10.3671 22 10.8092V13.1908C22 13.6329 21.8025 14.0568 21.4508 14.3693C21.0992 14.6819 20.6223 14.8575 20.1251 14.8575H3.87494C3.37768 14.8575 2.90078 14.6819 2.54916 14.3693C2.19754 14.0568 2 13.6329 2 13.1908V10.8092ZM3.87494 16.2858C3.37768 16.2858 2.90078 16.4614 2.54916 16.774C2.19754 17.0865 2 17.5105 2 17.9525V20.3333C2 20.7754 2.19754 21.1993 2.54916 21.5118C2.90078 21.8244 3.37768 22 3.87494 22H11.3747C11.872 22 12.3489 21.8244 12.7005 21.5118C13.0521 21.1993 13.2496 20.7754 13.2496 20.3333V17.9525C13.2496 17.5105 13.0521 17.0865 12.7005 16.774C12.3489 16.4614 11.872 16.2858 11.3747 16.2858H3.87494Z" fill="#262626"/>
</svg>
