<svg width="52" height="52" viewBox="0 0 52 52" fill="none" xmlns="http://www.w3.org/2000/svg">
<g filter="url(#filter0_d_74_6763)">
<rect x="4" y="4" width="44" height="44" rx="4" fill="white" shape-rendering="crispEdges"/>
<rect x="4.5" y="4.5" width="43" height="43" rx="3.5" stroke="#0077DA" shape-rendering="crispEdges"/>
<path d="M24.1531 10.4206L13.1928 15.8957C11.5817 16.7005 10.7761 17.1029 10.7761 17.7403C10.7761 18.3778 11.5817 18.7802 13.1928 19.585L24.1531 25.0601L24.1531 25.0601C25.0575 25.5119 25.5097 25.7377 25.9961 25.7377C26.4824 25.7377 26.9346 25.5119 27.839 25.0601L27.839 25.0601L38.7994 19.585C40.4105 18.7802 41.216 18.3778 41.216 17.7403C41.216 17.1029 40.4105 16.7005 38.7994 15.8957L27.839 10.4206C26.9346 9.96884 26.4824 9.74296 25.9961 9.74296C25.5097 9.74296 25.0575 9.96884 24.1531 10.4206Z" fill="#262626"/>
<path fill-rule="evenodd" clip-rule="evenodd" d="M14.9362 21.8605C15.8345 22.3426 16.8297 22.8612 17.9217 23.4304L22.1476 25.6327C24.0154 26.6061 24.9493 27.0928 25.9595 27.0928C26.9696 27.0928 27.9036 26.6061 29.7714 25.6327L33.9973 23.4304C35.0894 22.8612 36.0846 22.3425 36.983 21.8604L40.1091 23.4895C41.6483 24.2917 42.418 24.6928 42.418 25.3181C42.418 25.9434 41.6483 26.3445 40.1091 27.1467L27.8657 33.5274C26.9317 34.0141 26.4648 34.2575 25.9597 34.2575C25.4546 34.2575 24.9877 34.0141 24.0538 33.5274L11.8103 27.1467C10.2711 26.3445 9.50146 25.9434 9.50146 25.3181C9.50146 24.6928 10.2711 24.2917 11.8103 23.4895L11.8103 23.4895L14.9362 21.8605Z" fill="#262626"/>
<path fill-rule="evenodd" clip-rule="evenodd" d="M14.9444 30.1372C15.8642 30.6283 16.8857 31.1572 18.0089 31.7388L22.2083 33.9131C24.067 34.8755 24.9964 35.3567 26.0007 35.3567C27.005 35.3567 27.9344 34.8755 29.7931 33.9131L33.9925 31.7388C35.1157 31.1572 36.1372 30.6284 37.0569 30.1372L40.1746 31.7515C41.7248 32.5541 42.4998 32.9554 42.4998 33.5826C42.4998 34.2098 41.7248 34.6111 40.1746 35.4137L27.8968 41.7707C26.9675 42.2519 26.5028 42.4925 26.0007 42.4925C25.4985 42.4925 25.0338 42.2519 24.1045 41.7707L11.8267 35.4137C10.2765 34.6111 9.50146 34.2098 9.50146 33.5826C9.50146 32.9554 10.2765 32.5541 11.8267 31.7515L14.9444 30.1372Z" fill="#262626"/>
</g>
<defs>
<filter id="filter0_d_74_6763" x="0" y="0" width="52" height="52" filterUnits="userSpaceOnUse" color-interpolation-filters="sRGB">
<feFlood flood-opacity="0" result="BackgroundImageFix"/>
<feColorMatrix in="SourceAlpha" type="matrix" values="0 0 0 0 0 0 0 0 0 0 0 0 0 0 0 0 0 0 127 0" result="hardAlpha"/>
<feOffset/>
<feGaussianBlur stdDeviation="2"/>
<feComposite in2="hardAlpha" operator="out"/>
<feColorMatrix type="matrix" values="0 0 0 0 0 0 0 0 0 0 0 0 0 0 0 0 0 0 0.25 0"/>
<feBlend mode="normal" in2="BackgroundImageFix" result="effect1_dropShadow_74_6763"/>
<feBlend mode="normal" in="SourceGraphic" in2="effect1_dropShadow_74_6763" result="shape"/>
</filter>
</defs>
</svg>
