<svg width="24" height="25" viewBox="0 0 24 25" fill="none" xmlns="http://www.w3.org/2000/svg">
<g id="Lock">
<path id="Vector" d="M12 17.7381C12.5304 17.7381 13.0391 17.5374 13.4142 17.1802C13.7893 16.823 14 16.3385 14 15.8333C14 15.3282 13.7893 14.8437 13.4142 14.4865C13.0391 14.1293 12.5304 13.9286 12 13.9286C11.4696 13.9286 10.9609 14.1293 10.5858 14.4865C10.2107 14.8437 10 15.3282 10 15.8333C10 16.3385 10.2107 16.823 10.5858 17.1802C10.9609 17.5374 11.4696 17.7381 12 17.7381ZM18 9.16667C18.5304 9.16667 19.0391 9.36735 19.4142 9.72456C19.7893 10.0818 20 10.5663 20 11.0714V20.5952C20 21.1004 19.7893 21.5849 19.4142 21.9421C19.0391 22.2993 18.5304 22.5 18 22.5H6C5.46957 22.5 4.96086 22.2993 4.58579 21.9421C4.21071 21.5849 4 21.1004 4 20.5952V11.0714C4 10.5663 4.21071 10.0818 4.58579 9.72456C4.96086 9.36735 5.46957 9.16667 6 9.16667H7V7.2619C7 5.99897 7.52678 4.78776 8.46447 3.89473C9.40215 3.0017 10.6739 2.5 12 2.5C12.6566 2.5 13.3068 2.62317 13.9134 2.86248C14.52 3.10179 15.0712 3.45255 15.5355 3.89473C15.9998 4.33691 16.3681 4.86186 16.6194 5.4396C16.8707 6.01734 17 6.63656 17 7.2619V9.16667H18ZM12 4.40476C11.2044 4.40476 10.4413 4.70578 9.87868 5.2416C9.31607 5.77742 9 6.50414 9 7.2619V9.16667H15V7.2619C15 6.50414 14.6839 5.77742 14.1213 5.2416C13.5587 4.70578 12.7956 4.40476 12 4.40476Z" fill="#00325C"/>
</g>
</svg>
