<svg width="24" height="25" viewBox="0 0 24 25" fill="none" xmlns="http://www.w3.org/2000/svg">
<g id="Mail">
<path id="Vector" d="M16.725 3.5H7.275C6.1412 3.5 5.05384 3.98692 4.25212 4.85364C3.4504 5.72036 3 6.89589 3 8.12162V16.8784C3 17.4853 3.11058 18.0863 3.32542 18.647C3.54025 19.2077 3.85515 19.7172 4.25212 20.1464C5.05384 21.0131 6.1412 21.5 7.275 21.5H16.725C17.8581 21.4974 18.9441 21.0097 19.7453 20.1435C20.5465 19.2774 20.9976 18.1033 21 16.8784V8.12162C20.9976 6.89668 20.5465 5.72265 19.7453 4.85648C18.9441 3.99032 17.8581 3.50257 16.725 3.5ZM13.44 11.5951C12.9972 11.8681 12.4962 12.0117 11.9865 12.0117C11.4768 12.0117 10.9758 11.8681 10.533 11.5951L4.368 7.77135C4.44772 6.99813 4.78831 6.28382 5.32463 5.76505C5.86094 5.24628 6.55534 4.95946 7.275 4.95946H16.725C17.4441 4.96159 18.1374 5.24914 18.6733 5.76751C19.2092 6.28588 19.5504 6.99897 19.632 7.77135L13.44 11.5951Z" fill="#00325C"/>
</g>
</svg>
