<svg width="24" height="24" viewBox="0 0 24 24" fill="none" xmlns="http://www.w3.org/2000/svg">
<g id="Pin_fill">
<path id="Subtract" fill-rule="evenodd" clip-rule="evenodd" d="M12.4011 22.3762C14.1474 21.4876 21 17.581 21 11C21 6.02944 16.9706 2 12 2C7.02944 2 3 6.02944 3 11C3 17.581 9.85259 21.4876 11.5989 22.3762C11.8528 22.5054 12.1472 22.5054 12.4011 22.3762ZM12 14.8571C14.1302 14.8571 15.8571 13.1302 15.8571 11C15.8571 8.86976 14.1302 7.14286 12 7.14286C9.86976 7.14286 8.14286 8.86976 8.14286 11C8.14286 13.1302 9.86976 14.8571 12 14.8571Z" fill="#262626"/>
</g>
</svg>
