<svg width="40" height="40" viewBox="0 0 40 40" fill="none" xmlns="http://www.w3.org/2000/svg">
<mask id="path-1-outside-1_2210_5851" maskUnits="userSpaceOnUse" x="4" y="15.6667" width="32" height="19" fill="black">
<rect fill="white" x="4" y="15.6667" width="32" height="19"/>
<path fill-rule="evenodd" clip-rule="evenodd" d="M10 33.3334L20 33.3334L30 33.3334C32.7614 33.3334 35 31.0948 35 28.3334C35 25.572 32.7614 23.3334 30 23.3334V23.3334C29.5341 23.3334 29.3011 23.3334 29.1383 23.3006C28.6416 23.2007 28.4058 23.048 28.1112 22.6358C28.0147 22.5007 27.8786 22.1976 27.6066 21.5914C26.3037 18.6885 23.388 16.6667 20 16.6667C16.612 16.6667 13.6963 18.6885 12.3934 21.5914C12.1214 22.1976 11.9853 22.5007 11.8888 22.6358C11.5942 23.048 11.3584 23.2007 10.8617 23.3006C10.6989 23.3334 10.4659 23.3334 10 23.3334V23.3334C7.23858 23.3334 5 25.572 5 28.3334C5 31.0948 7.23858 33.3334 10 33.3334Z"/>
</mask>
<path fill-rule="evenodd" clip-rule="evenodd" d="M10 33.3334L20 33.3334L30 33.3334C32.7614 33.3334 35 31.0948 35 28.3334C35 25.572 32.7614 23.3334 30 23.3334V23.3334C29.5341 23.3334 29.3011 23.3334 29.1383 23.3006C28.6416 23.2007 28.4058 23.048 28.1112 22.6358C28.0147 22.5007 27.8786 22.1976 27.6066 21.5914C26.3037 18.6885 23.388 16.6667 20 16.6667C16.612 16.6667 13.6963 18.6885 12.3934 21.5914C12.1214 22.1976 11.9853 22.5007 11.8888 22.6358C11.5942 23.048 11.3584 23.2007 10.8617 23.3006C10.6989 23.3334 10.4659 23.3334 10 23.3334V23.3334C7.23858 23.3334 5 25.572 5 28.3334C5 31.0948 7.23858 33.3334 10 33.3334Z" fill="#7E869E" fill-opacity="0.4"/>
<path d="M20 33.3334L20 32.3334L20 32.3334L20 33.3334ZM10 33.3334L10 34.3334L10 34.3334L10 33.3334ZM30 33.3334L30 34.3334H30V33.3334ZM11.8888 22.6358L12.7024 23.2172L11.8888 22.6358ZM10.8617 23.3006L10.6643 22.3203L10.8617 23.3006ZM29.1383 23.3006L29.3357 22.3203L29.1383 23.3006ZM27.6066 21.5914L26.6942 22.0009L27.6066 21.5914ZM28.1112 22.6358L27.2976 23.2172L28.1112 22.6358ZM20 32.3334L10 32.3334L10 34.3334L20 34.3334L20 32.3334ZM30 32.3334L20 32.3334L20 34.3334L30 34.3334L30 32.3334ZM34 28.3334C34 30.5426 32.2091 32.3334 30 32.3334V34.3334C33.3137 34.3334 36 31.6471 36 28.3334H34ZM30 24.3334C32.2091 24.3334 34 26.1243 34 28.3334H36C36 25.0197 33.3137 22.3334 30 22.3334V24.3334ZM28.5189 21.182C27.0607 17.9329 23.7961 15.6667 20 15.6667V17.6667C22.9799 17.6667 25.5468 19.4442 26.6942 22.0009L28.5189 21.182ZM20 15.6667C16.2039 15.6667 12.9393 17.9329 11.4811 21.182L13.3058 22.0009C14.4532 19.4442 17.0201 17.6667 20 17.6667V15.6667ZM10 22.3334C6.68629 22.3334 4 25.0197 4 28.3334H6C6 26.1243 7.79086 24.3334 10 24.3334V22.3334ZM4 28.3334C4 31.6471 6.68629 34.3334 10 34.3334V32.3334C7.79086 32.3334 6 30.5426 6 28.3334H4ZM11.4811 21.182C11.3431 21.4895 11.2464 21.7048 11.1722 21.8609C11.0901 22.0334 11.0656 22.0678 11.0752 22.0544L12.7024 23.2172C12.8085 23.0687 12.9003 22.884 12.9784 22.7197C13.0644 22.5389 13.1717 22.2995 13.3058 22.0009L11.4811 21.182ZM10 24.3334C10.4069 24.3334 10.7719 24.3388 11.059 24.281L10.6643 22.3203C10.6669 22.3198 10.6351 22.3262 10.5146 22.3298C10.3962 22.3333 10.2392 22.3334 10 22.3334V24.3334ZM11.0752 22.0544C10.9656 22.2078 10.9188 22.2386 10.9076 22.2458C10.8965 22.253 10.8492 22.2831 10.6643 22.3203L11.059 24.281C11.3708 24.2182 11.6898 24.122 11.9944 23.9248C12.299 23.7276 12.5174 23.476 12.7024 23.2172L11.0752 22.0544ZM30 22.3334C29.7608 22.3334 29.6038 22.3333 29.4854 22.3298C29.3649 22.3262 29.3331 22.3198 29.3357 22.3203L28.941 24.281C29.2281 24.3388 29.5931 24.3334 30 24.3334V22.3334ZM26.6942 22.0009C26.8283 22.2995 26.9356 22.5389 27.0216 22.7197C27.0997 22.884 27.1915 23.0687 27.2976 23.2172L28.9248 22.0544C28.9344 22.0678 28.9099 22.0334 28.8278 21.8609C28.7536 21.7048 28.6569 21.4895 28.5189 21.182L26.6942 22.0009ZM29.3357 22.3203C29.1508 22.2831 29.1035 22.253 29.0924 22.2458C29.0812 22.2386 29.0344 22.2078 28.9248 22.0544L27.2976 23.2172C27.4826 23.476 27.701 23.7276 28.0056 23.9248C28.3102 24.122 28.6292 24.2182 28.941 24.281L29.3357 22.3203Z" fill="#7E869E" fill-opacity="0.25" mask="url(#path-1-outside-1_2210_5851)"/>
<path fill-rule="evenodd" clip-rule="evenodd" d="M15.8333 18.965C14.7373 19.723 13.8575 20.7721 13.3058 22.0014L13.3006 22.0129C13.169 22.3062 13.0633 22.5417 12.9784 22.7202C12.9003 22.8845 12.8085 23.0692 12.7024 23.2177C12.5174 23.4765 12.299 23.7281 11.9944 23.9253C11.6898 24.1225 11.3708 24.2187 11.059 24.2815C10.7945 24.3347 10.464 24.3344 10.0955 24.334L10 24.3339C7.79086 24.3339 6 26.1248 6 28.3339C6 30.5431 7.79086 32.3339 10 32.3339H20H30C32.2091 32.3339 34 30.5431 34 28.3339C34 26.1248 32.2091 24.3339 30 24.3339L29.9045 24.334C29.536 24.3344 29.2055 24.3347 28.941 24.2815C28.6292 24.2187 28.3102 24.1225 28.0056 23.9253C27.701 23.7281 27.4826 23.4765 27.2976 23.2177C27.1915 23.0692 27.0997 22.8845 27.0216 22.7202C26.9368 22.5418 26.8311 22.3063 26.6995 22.0132L26.6995 22.0131L26.6942 22.0014C26.1425 20.7721 25.2627 19.723 24.1667 18.965V16.6467C26.091 17.6085 27.636 19.2153 28.5189 21.1825C28.6569 21.49 28.7536 21.7053 28.8278 21.8614C28.8867 21.9852 28.916 22.0379 28.9243 22.0528C28.9275 22.0586 28.9275 22.0587 28.9248 22.0549C29.0344 22.2083 29.0812 22.2391 29.0924 22.2463C29.1035 22.2535 29.1508 22.2836 29.3357 22.3208C29.3355 22.3208 29.3355 22.3208 29.3357 22.3208C29.3384 22.3212 29.374 22.3269 29.4854 22.3303C29.6038 22.3338 29.7608 22.3339 30 22.3339C33.3137 22.3339 36 25.0202 36 28.3339C36 31.6476 33.3137 34.3339 30 34.3339H20H10C6.68629 34.3339 4 31.6476 4 28.3339C4 25.0202 6.68629 22.3339 10 22.3339C10.2392 22.3339 10.3962 22.3338 10.5146 22.3303C10.626 22.3269 10.6616 22.3213 10.6643 22.3208C10.6645 22.3208 10.6645 22.3208 10.6643 22.3208C10.8492 22.2836 10.8965 22.2535 10.9076 22.2463C10.9188 22.2391 10.9656 22.2083 11.0752 22.0549C11.0725 22.0587 11.0725 22.0586 11.0757 22.0528L11.0757 22.0528C11.084 22.0379 11.1133 21.9852 11.1722 21.8614C11.2464 21.7053 11.3431 21.49 11.4811 21.1825C12.364 19.2153 13.909 17.6085 15.8333 16.6467V18.965Z" fill="#222222"/>
<path d="M20.0007 5L19.2935 4.29289L20.0007 3.58579L20.7078 4.29289L20.0007 5ZM21.0007 21.6667C21.0007 22.219 20.5529 22.6667 20.0007 22.6667C19.4484 22.6667 19.0007 22.219 19.0007 21.6667L21.0007 21.6667ZM12.6269 10.9596L19.2935 4.29289L20.7078 5.70711L14.0411 12.3738L12.6269 10.9596ZM20.7078 4.29289L27.3744 10.9596L25.9602 12.3738L19.2935 5.70711L20.7078 4.29289ZM21.0007 5L21.0007 21.6667L19.0007 21.6667L19.0007 5L21.0007 5Z" fill="#222222"/>
</svg>
