<svg width="40" height="40" viewBox="0 0 40 40" fill="none" xmlns="http://www.w3.org/2000/svg">
<path d="M18.1442 29.3206C18.3876 24.0734 20.9525 19.0769 26.5621 19.0769C32.1716 19.0769 34.7366 24.0734 34.9799 29.3206C35.0013 29.7804 34.6261 30.1538 34.1658 30.1538H18.9583C18.4981 30.1538 18.1229 29.7804 18.1442 29.3206Z" fill="#AAB3BC"/>
<path d="M5.01923 29.3206C5.26256 24.0734 7.82753 19.0769 13.4371 19.0769C19.0466 19.0769 21.6116 24.0734 21.8549 29.3206C21.8763 29.7804 21.5011 30.1538 21.0408 30.1538H5.83333C5.3731 30.1538 4.99791 29.7804 5.01923 29.3206Z" fill="#AAB3BC"/>
<ellipse cx="26.5623" cy="12.6154" rx="4.68727" ry="4.61537" fill="#AAB3BC"/>
<ellipse cx="4.68727" cy="4.61537" rx="4.68727" ry="4.61537" transform="matrix(-1 0 0 1 18.125 8)" fill="#AAB3BC"/>
<path d="M10.6464 31.1669C10.9167 25.9196 13.7667 20.9231 19.9995 20.9231C26.2324 20.9231 29.0824 25.9196 29.3527 31.1669C29.3764 31.6265 29.001 32 28.5408 32H11.4583C10.9981 32 10.6227 31.6265 10.6464 31.1669Z" fill="#222222"/>
<ellipse cx="19.9997" cy="13.5384" rx="5.62473" ry="5.53844" fill="#222222"/>
</svg>
